<svg width="182" height="182" viewBox="0 0 182 182" fill="none" xmlns="http://www.w3.org/2000/svg">
<rect width="182" height="182" rx="54.6" fill="#7B5AFF" fill-opacity="0.15"/>
<path d="M59.3754 87.8374C60.2141 87.8374 61.0185 88.1706 61.6116 88.7637C62.2047 89.3568 62.5379 90.1612 62.5379 90.9999C62.5361 95.4323 63.5696 99.8039 65.556 103.766C67.5423 107.729 70.4266 111.172 73.9791 113.823C77.5316 116.474 81.6541 118.258 86.018 119.034C90.382 119.81 94.8669 119.556 99.1154 118.292C99.8164 119.45 100.77 120.435 101.904 121.173C103.039 121.911 104.325 122.384 105.668 122.555C102.041 124.244 98.148 125.291 94.1629 125.648V138.437C94.1629 139.276 93.8297 140.081 93.2366 140.674C92.6435 141.267 91.8391 141.6 91.0004 141.6C90.1616 141.6 89.3572 141.267 88.7642 140.674C88.1711 140.081 87.8379 139.276 87.8379 138.437V125.648C79.1942 124.859 71.1578 120.867 65.3065 114.457C59.4551 108.046 56.2117 99.6795 56.2129 90.9999C56.2129 90.1612 56.5461 89.3568 57.1392 88.7637C57.7323 88.1706 58.5366 87.8374 59.3754 87.8374ZM104.283 114.516C104.467 115.04 104.809 115.494 105.263 115.815C105.716 116.136 106.258 116.309 106.813 116.309C107.368 116.309 107.91 116.136 108.363 115.815C108.816 115.494 109.159 115.04 109.343 114.516L111.544 107.742C112.229 105.683 113.385 103.812 114.92 102.278C116.455 100.744 118.327 99.5895 120.386 98.9062L127.16 96.7051C127.683 96.5211 128.135 96.1796 128.455 95.7276C128.776 95.2755 128.948 94.7353 128.948 94.1814C128.948 93.6275 128.776 93.0872 128.455 92.6352C128.135 92.1832 127.683 91.8416 127.16 91.6577L127.034 91.6261L120.254 89.4187C118.193 88.7353 116.32 87.5808 114.784 86.0469C113.248 84.513 112.091 82.642 111.405 80.5826L109.204 73.8149C109.021 73.2902 108.68 72.8354 108.227 72.5135C107.774 72.1917 107.232 72.0188 106.677 72.0188C106.121 72.0188 105.58 72.1917 105.127 72.5135C104.674 72.8354 104.333 73.2902 104.15 73.8149L101.949 80.5826C101.277 82.6274 100.141 84.4891 98.6303 86.0219C97.1194 87.5548 95.2743 88.7174 93.2394 89.4187L86.459 91.6197C85.9366 91.8037 85.4841 92.1452 85.164 92.5973C84.8439 93.0493 84.672 93.5895 84.672 94.1434C84.672 94.6973 84.8439 95.2376 85.164 95.6896C85.4841 96.1416 85.9366 96.4832 86.459 96.6671L93.2394 98.8682C95.3037 99.5558 97.1787 100.716 98.715 102.257C100.251 103.798 101.406 105.676 102.088 107.742L104.283 114.516ZM106.686 65.6999C107.819 65.6999 108.938 65.915 109.982 66.3261V59.3749C109.982 54.3424 107.983 49.5161 104.424 45.9576C100.866 42.399 96.0392 40.3999 91.0067 40.3999C85.9742 40.3999 81.1479 42.399 77.5894 45.9576C74.0309 49.5161 72.0317 54.3424 72.0317 59.3749V90.9999C72.0306 93.913 72.7002 96.7873 73.9887 99.4C75.2771 102.013 77.1499 104.294 79.4617 106.066C81.7736 107.838 84.4625 109.055 87.3201 109.621C90.1777 110.187 93.1273 110.087 95.9402 109.33C95.534 108.291 94.905 107.354 94.0974 106.585C93.2898 105.815 92.3233 105.232 91.266 104.877L84.435 102.663L84.3655 102.632C82.609 102.012 81.0879 100.863 80.012 99.3428C78.9361 97.8225 78.3583 96.0059 78.3583 94.1434C78.3583 92.2809 78.9361 90.4643 80.012 88.944C81.0879 87.4237 82.609 86.2747 84.3655 85.6553L84.4414 85.63L91.2281 83.4289C92.3298 83.0419 93.3281 82.4073 94.1461 81.5739C94.9641 80.7405 95.5801 79.7306 95.9465 78.6219L98.1666 71.7782L98.1919 71.7023C98.8125 69.9457 99.9628 68.425 101.484 67.3499C103.006 66.2747 104.823 65.6982 106.686 65.6999ZM141.714 122.404L146.559 123.972L146.654 123.997C146.933 124.096 147.185 124.258 147.391 124.47C147.598 124.682 147.752 124.939 147.842 125.221C147.932 125.503 147.955 125.802 147.911 126.094C147.866 126.387 147.754 126.665 147.584 126.907C147.354 127.23 147.029 127.473 146.654 127.603L141.815 129.171C140.342 129.66 139.004 130.486 137.906 131.583C136.808 132.68 135.981 134.017 135.49 135.49L133.922 140.322C133.791 140.696 133.547 141.02 133.224 141.249C132.901 141.478 132.515 141.601 132.119 141.601C131.723 141.601 131.337 141.478 131.014 141.249C130.691 141.02 130.448 140.696 130.317 140.322L128.742 135.49C128.256 134.014 127.431 132.672 126.334 131.572C125.237 130.471 123.898 129.643 122.423 129.152L117.584 127.577C117.306 127.478 117.054 127.316 116.849 127.103C116.644 126.891 116.49 126.633 116.401 126.352C116.311 126.07 116.288 125.771 116.333 125.479C116.379 125.187 116.491 124.909 116.661 124.668C116.889 124.346 117.212 124.103 117.584 123.972L122.423 122.404C123.877 121.902 125.195 121.072 126.275 119.977C127.354 118.882 128.166 117.552 128.647 116.091L130.222 111.253C130.353 110.879 130.596 110.555 130.919 110.326C131.242 110.097 131.628 109.974 132.024 109.974C132.42 109.974 132.806 110.097 133.129 110.326C133.452 110.555 133.696 110.879 133.827 111.253L135.402 116.091C135.891 117.563 136.717 118.899 137.814 119.995C138.911 121.091 140.242 121.916 141.714 122.404Z" fill="#7B5AFF"/>
</svg>
