<svg width="233" height="74" viewBox="0 0 233 74" fill="none" xmlns="http://www.w3.org/2000/svg">
<path d="M3.97672 20.3899L3.97758 20.3891C5.15671 19.2089 6.74775 18.5393 9.35579 18.1885C12.0046 17.8323 15.4823 17.8293 20.3089 17.8293H25.3861C30.2127 17.8293 33.6904 17.8323 36.3392 18.1885C38.9472 18.5393 40.5383 19.2089 41.7174 20.3891L41.7183 20.3899C42.8984 21.5691 43.5681 23.1601 43.9188 25.7681C44.2751 28.4169 44.2781 31.8946 44.2781 36.7212V46.8757C44.2781 51.7023 44.2751 55.18 43.9188 57.8288C43.5681 60.4368 42.8984 62.0278 41.7183 63.207L41.7174 63.2078C40.5383 64.388 38.9472 65.0576 36.3392 65.4084C33.6904 65.7646 30.2127 65.7677 25.3861 65.7677H20.3089C15.4823 65.7677 12.0046 65.7646 9.35579 65.4084C6.74775 65.0576 5.15671 64.388 3.97758 63.2078L3.97672 63.207C2.79658 62.0278 2.12693 60.4368 1.77616 57.8288C1.41991 55.18 1.4169 51.7023 1.4169 46.8757V36.7212C1.4169 31.8946 1.41991 28.4169 1.77616 25.7681C2.12693 23.1601 2.79658 21.5691 3.97672 20.3899ZM12.6931 33.4004C11.8123 33.4004 10.9676 33.7503 10.3449 34.373C9.72207 34.9958 9.37219 35.8405 9.37219 36.7212C9.37219 37.602 9.72207 38.4467 10.3449 39.0694C10.9676 39.6922 11.8123 40.0421 12.6931 40.0421H33.0019C33.8827 40.0421 34.7274 39.6922 35.3501 39.0694C35.9729 38.4467 36.3228 37.602 36.3228 36.7212C36.3228 35.8405 35.9729 34.9958 35.3501 34.373C34.7274 33.7503 33.8827 33.4004 33.0019 33.4004H12.6931ZM12.6931 43.5548C11.8123 43.5548 10.9676 43.9047 10.3449 44.5275C9.72207 45.1503 9.37219 45.9949 9.37219 46.8757C9.37219 47.7564 9.72207 48.6011 10.3449 49.2239C10.9676 49.8467 11.8123 50.1965 12.6931 50.1965H25.3861C26.2669 50.1965 27.1115 49.8467 27.7343 49.2239C28.3571 48.6011 28.707 47.7564 28.707 46.8757C28.707 45.9949 28.3571 45.1503 27.7343 44.5275C27.1115 43.9047 26.2669 43.5548 25.3861 43.5548H12.6931Z" fill="#817D88" stroke="#817D88" stroke-width="2.8338"/>
<path d="M52.6181 17.7262L35.7215 35.8297C35.5425 36.0207 35.3061 36.1484 35.0482 36.1934C34.7902 36.2384 34.5246 36.1982 34.2914 36.079C34.0582 35.9598 33.8702 35.768 33.7556 35.5325C33.641 35.297 33.6062 35.0307 33.6562 34.7736L35.8679 23.7109L27.1737 20.4463C26.987 20.3764 26.8205 20.2614 26.6891 20.1115C26.5576 19.9616 26.4654 19.7815 26.4206 19.5873C26.3757 19.393 26.3797 19.1907 26.4322 18.9984C26.4846 18.806 26.5839 18.6297 26.7211 18.4851L43.6176 0.381669C43.7967 0.190581 44.033 0.0629153 44.291 0.0179369C44.549 -0.0270414 44.8146 0.0131082 45.0478 0.132327C45.2809 0.251546 45.469 0.443365 45.5836 0.678839C45.6981 0.914313 45.733 1.18066 45.6829 1.4377L43.4653 12.5125L52.1594 15.7726C52.3448 15.8429 52.5099 15.9578 52.6403 16.1071C52.7707 16.2564 52.8624 16.4355 52.9071 16.6286C52.9518 16.8218 52.9483 17.0229 52.8969 17.2143C52.8454 17.4058 52.7476 17.5816 52.612 17.7262H52.6181Z" fill="#7B5AFF"/>
<path d="M66.1291 57.4907V26.972H78.7359C81.0209 26.972 82.9929 27.4191 84.6519 28.3132C86.3209 29.1973 87.6074 30.4342 88.5115 32.0237C89.4155 33.6033 89.8675 35.4412 89.8675 37.5373C89.8675 39.6434 89.4056 41.4863 88.4817 43.0659C87.5677 44.6355 86.2613 45.8525 84.5625 46.7168C82.8637 47.5811 80.847 48.0132 78.5124 48.0132H70.7337V42.2016H77.1415C78.2541 42.2016 79.183 42.0078 79.9281 41.6204C80.6831 41.233 81.2543 40.6915 81.6418 39.9961C82.0292 39.2908 82.2229 38.4712 82.2229 37.5373C82.2229 36.5936 82.0292 35.7789 81.6418 35.0935C81.2543 34.398 80.6831 33.8616 79.9281 33.4841C79.1731 33.1066 78.2442 32.9178 77.1415 32.9178H73.5054V57.4907H66.1291ZM103.737 57.9229C101.333 57.9229 99.2668 57.4311 97.5382 56.4476C95.8195 55.4542 94.4933 54.0733 93.5594 52.3049C92.6355 50.5267 92.1736 48.4653 92.1736 46.1207C92.1736 43.7662 92.6355 41.7048 93.5594 39.9365C94.4933 38.1582 95.8195 36.7773 97.5382 35.7938C99.2668 34.8004 101.333 34.3037 103.737 34.3037C106.141 34.3037 108.203 34.8004 109.921 35.7938C111.65 36.7773 112.976 38.1582 113.9 39.9365C114.834 41.7048 115.301 43.7662 115.301 46.1207C115.301 48.4653 114.834 50.5267 113.9 52.3049C112.976 54.0733 111.65 55.4542 109.921 56.4476C108.203 57.4311 106.141 57.9229 103.737 57.9229ZM103.782 52.4241C104.656 52.4241 105.396 52.1559 106.002 51.6194C106.608 51.083 107.07 50.3379 107.388 49.3842C107.716 48.4305 107.88 47.3278 107.88 46.076C107.88 44.8044 107.716 43.6917 107.388 42.738C107.07 41.7843 106.608 41.0392 106.002 40.5028C105.396 39.9663 104.656 39.6981 103.782 39.6981C102.878 39.6981 102.113 39.9663 101.487 40.5028C100.871 41.0392 100.399 41.7843 100.071 42.738C99.7536 43.6917 99.5946 44.8044 99.5946 46.076C99.5946 47.3278 99.7536 48.4305 100.071 49.3842C100.399 50.3379 100.871 51.083 101.487 51.6194C102.113 52.1559 102.878 52.4241 103.782 52.4241ZM126.321 26.972V57.4907H119.034V26.972H126.321ZM130.959 57.4907V34.6017H138.246V57.4907H130.959ZM134.61 31.9343C133.587 31.9343 132.707 31.5965 131.972 30.921C131.237 30.2355 130.87 29.4109 130.87 28.4473C130.87 27.4936 131.237 26.679 131.972 26.0034C132.707 25.3179 133.587 24.9752 134.61 24.9752C135.643 24.9752 136.522 25.3179 137.248 26.0034C137.983 26.679 138.35 27.4936 138.35 28.4473C138.35 29.4109 137.983 30.2355 137.248 30.921C136.522 31.5965 135.643 31.9343 134.61 31.9343ZM155.804 34.6017V39.9663H141.364V34.6017H155.804ZM144.389 29.1179H151.676V50.2932C151.676 50.7402 151.746 51.1029 151.885 51.381C152.034 51.6493 152.247 51.843 152.525 51.9622C152.804 52.0715 153.136 52.1261 153.524 52.1261C153.802 52.1261 154.095 52.1013 154.403 52.0516C154.721 51.992 154.959 51.9423 155.118 51.9026L156.221 57.1629C155.873 57.2622 155.382 57.3864 154.746 57.5354C154.12 57.6844 153.37 57.7788 152.496 57.8186C150.787 57.898 149.322 57.6993 148.1 57.2225C146.888 56.7357 145.959 55.9807 145.313 54.9574C144.677 53.9342 144.369 52.6477 144.389 51.0979V29.1179ZM159.522 57.4907V34.6017H166.809V57.4907H159.522ZM163.173 31.9343C162.149 31.9343 161.27 31.5965 160.535 30.921C159.8 30.2355 159.432 29.4109 159.432 28.4473C159.432 27.4936 159.8 26.679 160.535 26.0034C161.27 25.3179 162.149 24.9752 163.173 24.9752C164.206 24.9752 165.085 25.3179 165.81 26.0034C166.545 26.679 166.913 27.4936 166.913 28.4473C166.913 29.4109 166.545 30.2355 165.81 30.921C165.085 31.5965 164.206 31.9343 163.173 31.9343Z" fill="#817D88"/>
<path d="M199.149 38.0291H191.698C191.599 37.2641 191.395 36.5737 191.087 35.9578C190.779 35.3418 190.372 34.8153 189.865 34.3782C189.359 33.9411 188.758 33.6083 188.062 33.3798C187.377 33.1413 186.617 33.0221 185.782 33.0221C184.302 33.0221 183.026 33.3847 181.953 34.1099C180.89 34.8352 180.07 35.8832 179.494 37.2542C178.928 38.6252 178.644 40.2842 178.644 42.2314C178.644 44.258 178.933 45.9568 179.509 47.3278C180.095 48.6888 180.914 49.717 181.968 50.4124C183.031 51.0979 184.287 51.4406 185.738 51.4406C186.552 51.4406 187.292 51.3363 187.958 51.1277C188.634 50.9191 189.225 50.6161 189.731 50.2187C190.248 49.8114 190.67 49.3196 190.998 48.7434C191.336 48.1573 191.569 47.4966 191.698 46.7615L199.149 46.8062C199.02 48.1573 198.628 49.4885 197.972 50.7999C197.326 52.1112 196.437 53.3083 195.305 54.3912C194.172 55.4641 192.791 56.3185 191.162 56.9543C189.543 57.5901 187.685 57.908 185.589 57.908C182.827 57.908 180.353 57.302 178.168 56.09C175.992 54.868 174.273 53.0898 173.012 50.7552C171.75 48.4205 171.119 45.5793 171.119 42.2314C171.119 38.8735 171.76 36.0273 173.041 33.6927C174.323 31.3581 176.057 29.5848 178.242 28.3728C180.428 27.1608 182.877 26.5548 185.589 26.5548C187.436 26.5548 189.145 26.8131 190.715 27.3297C192.284 27.8363 193.665 28.5814 194.857 29.5649C196.05 30.5385 197.018 31.7356 197.763 33.1562C198.508 34.5769 198.97 36.2012 199.149 38.0291ZM209.193 57.4907H201.265L211.562 26.972H221.383L231.68 57.4907H223.752L216.584 34.6613H216.346L209.193 57.4907ZM208.135 45.4799H224.706V51.083H208.135V45.4799Z" fill="#7B5AFF"/>
</svg>
