<svg width="438" height="438" viewBox="0 0 438 438" fill="none" xmlns="http://www.w3.org/2000/svg">
<path fill-rule="evenodd" clip-rule="evenodd" d="M19.3686 126.271C-1.97007e-06 145.624 0 176.792 0 239.112V305.217C0 367.537 -1.97007e-06 398.705 19.3686 418.057C38.7207 437.426 69.889 437.426 132.209 437.426H165.261C227.581 437.426 258.75 437.426 278.102 418.057C297.471 398.705 297.471 367.537 297.471 305.217V239.112C297.471 176.792 297.471 145.624 278.102 126.271C258.75 106.903 227.581 106.903 165.261 106.903H132.209C69.889 106.903 38.7207 106.903 19.3686 126.271ZM82.6307 226.717C79.3434 226.717 76.1908 228.023 73.8664 230.348C71.542 232.672 70.2361 235.825 70.2361 239.112C70.2361 242.399 71.542 245.552 73.8664 247.876C76.1908 250.201 79.3434 251.507 82.6307 251.507H214.84C218.127 251.507 221.28 250.201 223.604 247.876C225.929 245.552 227.234 242.399 227.234 239.112C227.234 235.825 225.929 232.672 223.604 230.348C221.28 228.023 218.127 226.717 214.84 226.717H82.6307ZM82.6307 292.822C79.3434 292.822 76.1908 294.128 73.8664 296.452C71.542 298.777 70.2361 301.929 70.2361 305.217C70.2361 308.504 71.542 311.656 73.8664 313.981C76.1908 316.305 79.3434 317.611 82.6307 317.611H165.261C168.549 317.611 171.701 316.305 174.026 313.981C176.35 311.656 177.656 308.504 177.656 305.217C177.656 301.929 176.35 298.777 174.026 296.452C171.701 294.128 168.549 292.822 165.261 292.822H82.6307Z" fill="#817D88"/>
<path d="M431.791 94.223L346.467 194.491C345.563 195.549 344.339 196.285 342.98 196.586C341.62 196.888 340.2 196.74 338.933 196.163C337.665 195.587 336.62 194.614 335.954 193.392C335.288 192.169 335.038 190.763 335.241 189.385L344.29 130.092L297.319 114.873C296.31 114.548 295.398 113.977 294.663 113.213C293.929 112.449 293.395 111.515 293.109 110.494C292.824 109.474 292.796 108.398 293.027 107.364C293.259 106.329 293.743 105.369 294.437 104.567L379.761 4.29975C380.665 3.24122 381.889 2.50556 383.249 2.20378C384.608 1.902 386.028 2.05047 387.296 2.6268C388.563 3.20313 389.609 4.17604 390.275 5.39871C390.94 6.62139 391.191 8.02749 390.987 9.40483L381.909 68.764L428.879 83.9589C429.881 84.2871 430.786 84.857 431.515 85.6181C432.244 86.3793 432.774 87.3083 433.059 88.3231C433.344 89.3378 433.374 90.4071 433.147 91.4363C432.921 92.4656 432.444 93.4232 431.759 94.2245L431.791 94.223Z" fill="#7B5AFF"/>
</svg>
