<svg width="400" height="400" viewBox="0 0 400 400" fill="none" xmlns="http://www.w3.org/2000/svg">
<path fill-rule="evenodd" clip-rule="evenodd" d="M86.0552 147.073C75 158.119 75 175.909 75 211.48V249.211C75 284.782 75 302.572 86.0552 313.618C97.1009 324.673 114.891 324.673 150.462 324.673H169.328C204.898 324.673 222.689 324.673 233.734 313.618C244.79 302.572 244.79 284.782 244.79 249.211V211.48C244.79 175.909 244.79 158.119 233.734 147.073C222.689 136.018 204.898 136.018 169.328 136.018H150.462C114.891 136.018 97.1009 136.018 86.0552 147.073ZM122.164 204.406C120.287 204.406 118.488 205.151 117.161 206.478C115.835 207.804 115.089 209.604 115.089 211.48C115.089 213.356 115.835 215.156 117.161 216.483C118.488 217.809 120.287 218.555 122.164 218.555H197.626C199.502 218.555 201.302 217.809 202.628 216.483C203.955 215.156 204.7 213.356 204.7 211.48C204.7 209.604 203.955 207.804 202.628 206.478C201.302 205.151 199.502 204.406 197.626 204.406H122.164ZM122.164 242.137C120.287 242.137 118.488 242.882 117.161 244.209C115.835 245.535 115.089 247.335 115.089 249.211C115.089 251.087 115.835 252.887 117.161 254.214C118.488 255.54 120.287 256.286 122.164 256.286H169.328C171.204 256.286 173.003 255.54 174.33 254.214C175.657 252.887 176.402 251.087 176.402 249.211C176.402 247.335 175.657 245.535 174.33 244.209C173.003 242.882 171.204 242.137 169.328 242.137H122.164Z" fill="#817D88"/>
<path d="M321.457 128.78L272.756 186.011C272.239 186.615 271.541 187.035 270.765 187.207C269.989 187.379 269.178 187.294 268.455 186.965C267.732 186.636 267.135 186.081 266.755 185.383C266.375 184.685 266.232 183.883 266.348 183.097L271.513 149.253L244.703 140.567C244.127 140.381 243.606 140.055 243.187 139.619C242.768 139.183 242.463 138.65 242.3 138.067C242.137 137.485 242.121 136.871 242.253 136.28C242.385 135.69 242.662 135.142 243.058 134.684L291.759 77.4538C292.275 76.8496 292.974 76.4297 293.75 76.2575C294.525 76.0852 295.336 76.17 296.06 76.4989C296.783 76.8279 297.38 77.3832 297.76 78.0811C298.14 78.779 298.283 79.5815 298.167 80.3677L292.985 114.249L319.795 122.921C320.366 123.109 320.883 123.434 321.299 123.869C321.715 124.303 322.018 124.833 322.18 125.412C322.343 125.992 322.36 126.602 322.231 127.189C322.101 127.777 321.829 128.323 321.438 128.781L321.457 128.78Z" fill="#7B5AFF"/>
</svg>
