<svg width="330" height="329" viewBox="0 0 330 329" fill="none" xmlns="http://www.w3.org/2000/svg">
<path fill-rule="evenodd" clip-rule="evenodd" d="M15.2765 95.3819C0.749999 109.896 0.75 133.272 0.75 180.012V229.591C0.75 276.331 0.749999 299.707 15.2765 314.221C29.7906 328.748 53.1668 328.748 99.9068 328.748H124.696C171.436 328.748 194.812 328.748 209.326 314.221C223.853 299.707 223.853 276.331 223.853 229.591V180.012C223.853 133.272 223.853 109.896 209.326 95.3819C194.812 80.8555 171.436 80.8555 124.696 80.8555H99.9068C53.1668 80.8555 29.7906 80.8555 15.2765 95.3819ZM62.723 170.716C60.2576 170.716 57.8931 171.696 56.1498 173.439C54.4065 175.182 53.4271 177.547 53.4271 180.012C53.4271 182.478 54.4065 184.842 56.1498 186.586C57.8931 188.329 60.2576 189.308 62.723 189.308H161.88C164.345 189.308 166.71 188.329 168.453 186.586C170.196 184.842 171.176 182.478 171.176 180.012C171.176 177.547 170.196 175.182 168.453 173.439C166.71 171.696 164.345 170.716 161.88 170.716H62.723ZM62.723 220.295C60.2576 220.295 57.8931 221.274 56.1498 223.017C54.4065 224.761 53.4271 227.125 53.4271 229.591C53.4271 232.056 54.4065 234.421 56.1498 236.164C57.8931 237.907 60.2576 238.887 62.723 238.887H124.696C127.161 238.887 129.526 237.907 131.269 236.164C133.013 234.421 133.992 232.056 133.992 229.591C133.992 227.125 133.013 224.761 131.269 223.017C129.526 221.274 127.161 220.295 124.696 220.295H62.723Z" fill="#817D88"/>
<path d="M324.593 71.3451L260.6 146.546C259.922 147.34 259.004 147.891 257.985 148.118C256.965 148.344 255.9 148.233 254.949 147.8C253.999 147.368 253.215 146.639 252.715 145.722C252.216 144.805 252.028 143.75 252.181 142.717L258.967 98.2467L223.739 86.8326C222.982 86.5885 222.298 86.1608 221.747 85.5878C221.196 85.0147 220.796 84.3141 220.582 83.5486C220.368 82.783 220.347 81.9764 220.52 81.2007C220.694 80.425 221.057 79.7044 221.578 79.1033L285.571 3.90267C286.249 3.10877 287.167 2.55702 288.186 2.33069C289.206 2.10435 290.271 2.21571 291.222 2.64796C292.172 3.0802 292.956 3.80988 293.456 4.72689C293.955 5.6439 294.143 6.69847 293.99 7.73148L287.182 52.2509L322.409 63.647C323.16 63.8932 323.839 64.3206 324.386 64.8915C324.933 65.4623 325.331 66.1591 325.544 66.9202C325.758 67.6812 325.78 68.4832 325.61 69.2551C325.44 70.027 325.083 70.7452 324.569 71.3462L324.593 71.3451Z" fill="#7B5AFF"/>
</svg>
