<svg width="182" height="182" viewBox="0 0 182 182" fill="none" xmlns="http://www.w3.org/2000/svg">
<rect width="182" height="182" rx="54.6" fill="#7B5AFF" fill-opacity="0.15"/>
<path d="M105.691 52.6053L107.84 59.219C108.508 61.2295 109.637 63.0562 111.135 64.5538C112.634 66.0515 114.462 67.1787 116.473 67.8459L123.093 69.9949L123.222 70.0319C123.732 70.2115 124.174 70.5449 124.487 70.9863C124.799 71.4276 124.967 71.9551 124.967 72.4959C124.967 73.0366 124.799 73.5641 124.487 74.0054C124.174 74.4468 123.732 74.7802 123.222 74.9598L116.608 77.1088C114.597 77.7764 112.769 78.9037 111.269 80.4012C109.77 81.8987 108.64 83.7252 107.969 85.7356L105.82 92.3431C105.641 92.8532 105.307 93.295 104.866 93.6076C104.425 93.9201 103.897 94.0879 103.356 94.0879C102.816 94.0879 102.288 93.9201 101.847 93.6076C101.405 93.295 101.072 92.8532 100.892 92.3431L98.7435 85.7356C98.0796 83.7174 96.9525 81.8826 95.4523 80.3782C93.9521 78.8737 92.1206 77.7413 90.1043 77.0717L83.4844 74.9227C82.9743 74.7432 82.5325 74.4097 82.22 73.9684C81.9075 73.527 81.7396 72.9996 81.7396 72.4588C81.7396 71.918 81.9075 71.3906 82.22 70.9492C82.5325 70.5079 82.9743 70.1744 83.4844 69.9949L90.1043 67.8459C92.0905 67.1604 93.8915 66.025 95.3665 64.5286C96.8416 63.0321 97.9508 61.215 98.6076 59.219L100.757 52.6115C100.935 52.0993 101.268 51.6552 101.71 51.341C102.152 51.0267 102.681 50.8579 103.224 50.8579C103.766 50.8579 104.295 51.0267 104.737 51.341C105.179 51.6552 105.512 52.0931 105.691 52.6053ZM135.98 101.588L131.256 100.056C129.818 99.5791 128.511 98.7731 127.439 97.7021C126.367 96.6312 125.559 95.3248 125.081 93.887L123.549 89.1691C123.422 88.8043 123.184 88.4883 122.868 88.2647C122.553 88.0411 122.176 87.921 121.79 87.921C121.403 87.921 121.026 88.0411 120.711 88.2647C120.395 88.4883 120.157 88.8043 120.03 89.1691L118.486 93.887C118.018 95.3138 117.227 96.6132 116.174 97.6834C115.121 98.7536 113.835 99.5657 112.415 100.056L107.691 101.588C107.329 101.718 107.017 101.957 106.795 102.272C106.574 102.587 106.456 102.963 106.456 103.347C106.456 103.732 106.574 104.108 106.795 104.423C107.017 104.738 107.329 104.977 107.691 105.107L112.415 106.645C113.856 107.124 115.164 107.933 116.236 109.008C117.308 110.082 118.114 111.392 118.591 112.833L120.122 117.551C120.25 117.915 120.488 118.231 120.803 118.455C121.119 118.679 121.496 118.799 121.882 118.799C122.269 118.799 122.646 118.679 122.961 118.455C123.276 118.231 123.514 117.915 123.642 117.551L125.18 112.833C125.657 111.395 126.463 110.089 127.534 109.018C128.605 107.947 129.911 107.141 131.349 106.664L136.073 105.132C136.435 105.001 136.748 104.762 136.969 104.447C137.19 104.132 137.309 103.757 137.309 103.372C137.309 102.987 137.19 102.612 136.969 102.297C136.748 101.982 136.435 101.743 136.073 101.612L135.98 101.588ZM117.288 123.553C118.64 124.473 120.233 124.967 121.895 124.973C123.549 124.973 125.149 124.658 126.495 123.676C127.854 122.688 128.842 121.392 129.459 119.656L131.009 114.951C131.048 114.835 131.094 114.722 131.145 114.611V118.792C131.145 122.067 129.844 125.209 127.528 127.525C125.212 129.841 122.07 131.142 118.795 131.142H57.0419C53.7664 131.142 50.625 129.841 48.3088 127.525C45.9926 125.209 44.6914 122.067 44.6914 118.792V81.7402C44.6914 78.4647 45.9926 75.3233 48.3088 73.0071C50.625 70.6909 53.7664 69.3897 57.0419 69.3897H76.1111C75.7488 70.3701 75.5647 71.4074 75.5677 72.4526C75.5677 74.3052 76.1235 76.0405 77.1733 77.5225C78.2231 79.0046 79.7051 80.1841 81.5577 80.8016L84.3983 81.7402H66.3048C65.4859 81.7402 64.7006 82.0655 64.1215 82.6446C63.5425 83.2236 63.2172 84.009 63.2172 84.8279C63.2172 85.6467 63.5425 86.4321 64.1215 87.0111C64.7006 87.5902 65.4859 87.9155 66.3048 87.9155H84.8306C85.448 87.9144 86.0508 87.7283 86.5614 87.3812C87.0719 87.0341 87.4667 86.542 87.6947 85.9683C87.9227 85.3946 87.9735 84.7657 87.8405 84.1628C87.7076 83.5599 87.3969 83.0108 86.9487 82.5862L88.1158 82.9691C89.0421 83.2779 89.9067 83.7719 91.0182 84.7599C91.6975 85.4392 92.2533 86.242 92.809 87.6685L94.9395 94.0907H66.3048C65.4859 94.0907 64.7006 94.416 64.1215 94.9951C63.5425 95.5741 63.2172 96.3595 63.2172 97.1784C63.2172 97.9973 63.5425 98.7826 64.1215 99.3617C64.7006 99.9407 65.4859 100.266 66.3048 100.266H100.905C100.383 101.527 100.189 102.899 100.34 104.255C100.491 105.611 100.983 106.907 101.769 108.022C102.764 109.381 104.122 110.369 105.789 110.986L110.489 112.53C110.983 112.715 111.477 113.024 111.847 113.395C112.28 113.771 112.527 114.265 112.712 114.759L114.317 119.712C114.935 121.256 115.923 122.553 117.288 123.541M63.2172 109.529C63.2172 110.348 63.5425 111.133 64.1215 111.712C64.7006 112.291 65.4859 112.617 66.3048 112.617H91.0059C91.8248 112.617 92.6101 112.291 93.1892 111.712C93.7682 111.133 94.0935 110.348 94.0935 109.529C94.0935 108.71 93.7682 107.925 93.1892 107.346C92.6101 106.767 91.8248 106.441 91.0059 106.441H66.3048C65.4859 106.441 64.7006 106.767 64.1215 107.346C63.5425 107.925 63.2172 108.71 63.2172 109.529Z" fill="#7B5AFF"/>
</svg>
