<svg width="91" height="1117" viewBox="0 0 91 1117" fill="none" xmlns="http://www.w3.org/2000/svg">
<rect x="16" y="234" width="60" height="60" rx="20" fill="#7B5AFF"/>
<path d="M58.9162 258.26C56.8352 258.26 55.6728 260.326 56.1464 261.862L51.0517 266.971C50.6212 266.842 49.9897 266.842 49.5592 266.971L45.8997 263.311C46.3876 261.776 45.2252 259.695 43.1299 259.695C41.049 259.695 39.8722 261.761 40.3601 263.311L33.816 269.841C32.2804 269.368 30.2139 270.53 30.2139 272.611C30.2139 274.19 31.5055 275.481 33.0841 275.481C35.165 275.481 36.3275 273.415 35.8539 271.879L42.3836 265.335C42.8142 265.464 43.4456 265.464 43.8762 265.335L47.5357 268.994C47.0478 270.53 48.2102 272.611 50.3055 272.611C52.3864 272.611 53.5632 270.544 53.0752 268.994L58.1842 263.9C59.7198 264.373 61.7864 263.211 61.7864 261.13C61.7864 259.551 60.4948 258.26 58.9162 258.26Z" fill="white"/>
<path d="M50.3055 259.695L51.6545 256.724L54.6108 255.389L51.6545 254.055L50.3055 251.084L48.9852 254.055L46.0001 255.389L48.9852 256.724L50.3055 259.695ZM33.8017 262.565L34.5192 259.695L37.3894 258.977L34.5192 258.26L33.8017 255.389L33.0841 258.26L30.2139 258.977L33.0841 259.695L33.8017 262.565Z" fill="white"/>
<path fill-rule="evenodd" clip-rule="evenodd" d="M47.3834 178.42C47.1143 178.151 46.7493 178 46.3688 178C45.9882 178 45.6233 178.151 45.3542 178.42L35.3084 188.466L32.4381 191.336C32.3011 191.469 32.1917 191.627 32.1165 191.802C32.0413 191.977 32.0017 192.165 32.0001 192.356C31.9984 192.547 32.0347 192.736 32.1069 192.912C32.179 193.088 32.2856 193.249 32.4203 193.383C32.5551 193.518 32.7153 193.625 32.8917 193.697C33.0681 193.769 33.257 193.805 33.4476 193.804C33.6381 193.802 33.8265 193.762 34.0015 193.687C34.1766 193.612 34.335 193.503 34.4674 193.365L34.8879 192.945V202.397C34.8879 203.538 35.3415 204.634 36.1489 205.441C36.9563 206.248 38.0514 206.702 39.1932 206.702H53.5444C54.6862 206.702 55.7813 206.248 56.5887 205.441C57.3961 204.634 57.8497 203.538 57.8497 202.397V192.945L58.2702 193.365C58.5408 193.627 58.9034 193.772 59.2796 193.768C59.6559 193.765 60.0159 193.614 60.282 193.348C60.548 193.082 60.699 192.722 60.7022 192.346C60.7055 191.969 60.5609 191.607 60.2994 191.336L47.3834 178.42Z" fill="#838383" fill-opacity="0.75"/>
<path fill-rule="evenodd" clip-rule="evenodd" d="M25.391 33.5883C23 35.9773 23 39.825 23 47.5183V55.6789C23 63.3722 23 67.2199 25.391 69.6089C27.78 72 31.6277 72 39.3211 72H43.4013C51.0947 72 54.9424 72 57.3314 69.6089C59.7224 67.2199 59.7224 63.3722 59.7224 55.6789V47.5183C59.7224 39.825 59.7224 35.9773 57.3314 33.5883C54.9424 31.1973 51.0947 31.1973 43.4013 31.1973H39.3211C31.6277 31.1973 27.78 31.1973 25.391 33.5883ZM33.2007 45.9882C32.7949 45.9882 32.4057 46.1495 32.1187 46.4364C31.8318 46.7234 31.6706 47.1125 31.6706 47.5183C31.6706 47.9242 31.8318 48.3133 32.1187 48.6003C32.4057 48.8872 32.7949 49.0484 33.2007 49.0484H49.5218C49.9276 49.0484 50.3168 48.8872 50.6037 48.6003C50.8906 48.3133 51.0519 47.9242 51.0519 47.5183C51.0519 47.1125 50.8906 46.7234 50.6037 46.4364C50.3168 46.1495 49.9276 45.9882 49.5218 45.9882H33.2007ZM33.2007 54.1488C32.7949 54.1488 32.4057 54.31 32.1187 54.5969C31.8318 54.8839 31.6706 55.2731 31.6706 55.6789C31.6706 56.0847 31.8318 56.4739 32.1187 56.7608C32.4057 57.0478 32.7949 57.209 33.2007 57.209H43.4013C43.8072 57.209 44.1963 57.0478 44.4833 56.7608C44.7702 56.4739 44.9315 56.0847 44.9315 55.6789C44.9315 55.2731 44.7702 54.8839 44.4833 54.5969C44.1963 54.31 43.8072 54.1488 43.4013 54.1488H33.2007Z" fill="#817D88"/>
<path d="M76.3042 29.6319L65.771 42.0099C65.6594 42.1405 65.5083 42.2314 65.3405 42.2686C65.1727 42.3059 64.9973 42.2875 64.8409 42.2164C64.6844 42.1452 64.5553 42.0251 64.4731 41.8742C64.3909 41.7233 64.36 41.5497 64.3851 41.3797L65.5022 34.0599L59.7037 32.1812C59.5792 32.141 59.4665 32.0706 59.3759 31.9763C59.2852 31.8819 59.2193 31.7666 59.184 31.6406C59.1488 31.5146 59.1453 31.3818 59.1739 31.2542C59.2025 31.1265 59.2623 31.0079 59.3479 30.9089L69.8811 18.531C69.9927 18.4003 70.1439 18.3095 70.3117 18.2723C70.4794 18.235 70.6548 18.2533 70.8112 18.3245C70.9677 18.3956 71.0968 18.5157 71.179 18.6667C71.2612 18.8176 71.2921 18.9912 71.267 19.1612L70.1463 26.4891L75.9447 28.3648C76.0683 28.4054 76.1801 28.4757 76.2701 28.5697C76.3601 28.6636 76.4255 28.7783 76.4607 28.9036C76.4958 29.0289 76.4996 29.1609 76.4716 29.2879C76.4436 29.415 76.3848 29.5332 76.3002 29.6321L76.3042 29.6319Z" fill="#7B5AFF"/>
</svg>
